<svg width="84" height="30" viewBox="0 0 84 30" fill="none" xmlns="http://www.w3.org/2000/svg">
<g clip-path="url(#clip0_6577_1605)">
<path d="M21.9497 20.27L17.5797 15.9V6.57C17.5797 3.43 15.0197 0.87 11.8797 0.87C9.35973 0.87 7.20973 2.52 6.46973 4.79L3.89973 2.22L4.90973 1.21L3.69973 0L0.469727 3.23L1.67973 4.44L2.68973 3.43L6.18973 6.93V16.27C6.18973 19.41 8.74973 21.97 11.8897 21.97C14.4097 21.97 16.5597 20.32 17.2997 18.05L20.7397 21.49L21.9497 20.28V20.27ZM11.8897 2.58C14.0897 2.58 15.8797 4.37 15.8797 6.57V14.2L7.90973 6.23C8.07973 4.19 9.79973 2.58 11.8897 2.58ZM11.8897 20.25C9.68973 20.25 7.89973 18.46 7.89973 16.26V8.63L15.8697 16.6C15.6997 18.64 13.9797 20.25 11.8897 20.25Z" fill="#fff"/>
<path d="M83.2395 1.95996H34.1595V3.66996H38.9995V6.15996C38.2095 5.53996 37.2295 5.18996 36.2195 5.18996C33.7495 5.18996 31.7295 7.19996 31.7295 9.67996V15.33C31.7295 17.8 33.7395 19.82 36.2195 19.82C37.2295 19.82 38.2095 19.47 38.9995 18.85V20.34C37.9195 20.7 37.1795 21.71 37.1795 22.87V25.48H38.8895V22.87C38.8895 22.34 39.3195 21.91 39.8495 21.91C40.3795 21.91 40.8095 22.34 40.8095 22.87V25.19C40.8095 26.72 39.5595 27.97 38.0295 27.97C36.4995 27.97 35.2495 26.72 35.2495 25.19V22.58H33.5395V25.19C33.5395 27.66 35.5495 29.68 38.0295 29.68C40.5095 29.68 42.5195 27.67 42.5195 25.19V22.87C42.5195 21.71 41.7795 20.71 40.6995 20.34V3.66996H51.5795V6.53996C50.7895 5.91996 49.8095 5.56996 48.7995 5.56996H47.7995C46.5995 5.56996 45.4695 6.03996 44.6295 6.87996C43.7795 7.72996 43.3195 8.85996 43.3195 10.05V17.14C43.3195 18.61 44.5195 19.81 45.9895 19.81C47.4595 19.81 48.6595 18.61 48.6595 17.14V10.05C48.6595 8.83996 47.8395 7.80996 46.7295 7.47996C47.0695 7.33996 47.4295 7.26996 47.7995 7.26996H48.7995C50.3295 7.26996 51.5795 8.51996 51.5795 10.05V21.33H53.2895V3.66996H56.6195V21.34H58.3295V3.66996H68.9295V6.15996C68.1395 5.53996 67.1595 5.18996 66.1495 5.18996C63.6795 5.18996 61.6595 7.19996 61.6595 9.67996V15.33C61.6595 17.8 63.6695 19.82 66.1495 19.82C67.1595 19.82 68.1395 19.47 68.9295 18.85V21.34H70.6395V3.66996H78.8095V5.58996C78.3295 5.32996 77.7995 5.18996 77.2395 5.18996C75.4295 5.18996 73.9595 6.65996 73.9595 8.46996V17.36C73.9595 19.61 75.7895 21.44 78.0395 21.44C80.2895 21.44 82.1195 19.61 82.1195 17.36V14.22H80.4095V17.36C80.4095 18.67 79.3395 19.74 78.0295 19.74C76.7195 19.74 75.6495 18.67 75.6495 17.36V8.46996C75.6495 7.60996 76.3495 6.89996 77.2195 6.89996C78.0895 6.89996 78.7895 7.59996 78.7895 8.46996V8.74996H80.4595L80.4995 8.50996V3.66996H83.4995V1.95996H83.2195H83.2395ZM66.1595 6.89996C67.6895 6.89996 68.9395 8.14996 68.9395 9.67996V15.33C68.9395 16.86 67.6895 18.11 66.1595 18.11C64.6295 18.11 63.3795 16.86 63.3795 15.33V9.67996C63.3795 8.14996 64.6295 6.89996 66.1595 6.89996ZM36.2195 6.89996C37.7495 6.89996 38.9995 8.14996 38.9995 9.67996V14.08L33.6195 8.69996C34.0295 7.61996 35.0495 6.89996 36.2195 6.89996ZM36.2195 18.11C34.6895 18.11 33.4395 16.86 33.4395 15.33V10.93L38.8195 16.31C38.4095 17.39 37.3895 18.11 36.2195 18.11ZM46.9595 17.15C46.9595 17.68 46.5295 18.11 45.9995 18.11C45.4695 18.11 45.0395 17.68 45.0395 17.15V10.06C45.0395 9.52996 45.4695 9.09996 45.9995 9.09996C46.5295 9.09996 46.9595 9.52996 46.9595 10.06V17.15Z" fill="#fff"/>
</g>
<defs>
<clipPath id="clip0_6577_1605">
<rect width="83.06" height="29.68" fill="white" transform="translate(0.469727)"/>
</clipPath>
</defs>
</svg>
