<svg width="22" height="22" viewBox="0 0 22 22" fill="none" xmlns="http://www.w3.org/2000/svg">
<path d="M21.9497 20.27L17.5797 15.9V6.57C17.5797 3.43 15.0197 0.87 11.8797 0.87C9.35973 0.87 7.20973 2.52 6.46973 4.79L3.89973 2.22L4.90973 1.21L3.69973 0L0.469727 3.23L1.67973 4.44L2.68973 3.43L6.18973 6.93V16.27C6.18973 19.41 8.74973 21.97 11.8897 21.97C14.4097 21.97 16.5597 20.32 17.2997 18.05L20.7397 21.49L21.9497 20.28V20.27ZM11.8897 2.58C14.0897 2.58 15.8797 4.37 15.8797 6.57V14.2L7.90973 6.23C8.07973 4.19 9.79973 2.58 11.8897 2.58V2.58ZM11.8897 20.25C9.68973 20.25 7.89973 18.46 7.89973 16.26V8.63L15.8697 16.6C15.6997 18.64 13.9797 20.25 11.8897 20.25V20.25Z" fill="#232a45"/>
</svg>
